<?xml version="1.0" encoding="UTF-8"?><svg id="a" xmlns="http://www.w3.org/2000/svg" width="520" height="773.6" viewBox="0 0 520 773.6"><defs><style>.f,.g{fill-rule:evenodd;}.f,.h{fill:#008754;}.g{fill:#f0c900;}</style></defs><g id="b"><g id="c"><path class="g" d="M259.9,768.7c-3.6,0-6.6-2.3-7.5-5.8-39.9-151.4-103.2-227.1-154.1-287.9-25.2-30.1-48.9-58.4-65.8-91-18.8-36.2-27.5-74.3-27.5-120,0-69.2,26.5-134.2,74.7-183.1C127.8,32,191.9,5,260,5s132.2,27,180.3,75.9c48.2,48.9,74.7,113.9,74.7,183.1,0,47-9.2,86.9-29,125.6-17.8,34.8-42.6,65.6-68.9,98.2-52,64.5-111,137.6-149.8,275.2-.9,3.4-3.9,5.7-7.4,5.7Z"/><path d="M260,10c138.1,0,250,113.7,250,254,0,197.8-168,215.3-247.4,497.7-.4,1.3-1.5,2-2.6,2s-2.3-.7-2.6-2C177.8,460,10,461.6,10,264,10,123.7,121.9,10,260,10m0-10c-35.1,0-69.2,7-101.3,20.8-31,13.3-58.8,32.4-82.6,56.6-23.9,24.2-42.6,52.5-55.7,83.9C6.9,193.8,0,228.4,0,264c0,46.5,8.9,85.4,28,122.2,17.1,33.1,41.1,61.7,66.4,91.9,53.2,63.6,113.6,135.7,153.2,286,1.5,5.6,6.5,9.5,12.3,9.5s10.7-3.7,12.2-9.3c38.5-136.6,97.1-209.3,148.8-273.5,26.5-32.8,51.5-63.8,69.5-99,20.2-39.3,29.6-80,29.6-127.8,0-35.6-6.9-70.2-20.4-102.7-13.1-31.4-31.8-59.7-55.7-83.9-23.9-24.3-51.7-43.3-82.6-56.6C329.2,7,295.1,0,260,0h0Z"/></g><path id="d" class="f" d="M475,264c0-120.7-98.5-215-215-215S45,143.3,45,264s98.4,215,215,215,215-94.3,215-215Zm-60,0c0,85.6-69.4,155-155,155s-155-69.4-155-155S174.4,109,260,109s155,69.4,155,155h0Z"/><path id="e" class="h" d="M176.6,164c-.9,0-1.6,.7-1.6,1.6v196.8c0,.9,.7,1.6,1.6,1.6h41.9c.9,0,1.6-.7,1.6-1.6v-75.9h80v75.9c0,.9,.7,1.6,1.6,1.6h41.9c.9,0,1.6-.7,1.6-1.6V165.6c0-.9-.7-1.6-1.6-1.6h-41.9c-.9,0-1.6,.7-1.6,1.6v75.9h-80v-75.9c0-.9-.7-1.6-1.6-1.6h-41.9Z"/></g></svg>